<svg xmlns="http://www.w3.org/2000/svg" width="256" height="128" viewBox="0 0 256 128">
  <defs><linearGradient id="h" x1="0" x2="1"><stop stop-color="#263342"/><stop offset=".55" stop-color="#c6d3dc"/><stop offset="1" stop-color="#53697a"/></linearGradient></defs>
  <g fill="none" stroke="#fff" stroke-linejoin="round">
    <path d="M238 64 181 25 86 17 22 39 5 64l17 25 64 22 95-8Z" fill="url(#h)" stroke-width="3"/>
    <path d="m219 64-61-23-84-9-42 16-13 16 13 16 42 16 84-9Z" fill="#152331" stroke-width="2" opacity=".9"/>
    <path d="m196 64-61-12-46 3-18 9 18 9 46 3Z" fill="#b9c8d2" stroke-width="2"/>
    <path d="M154 42V25M154 86v17M104 47 83 26M104 81 83 102" stroke-width="4"/>
    <path d="M57 42 20 35M57 86 20 93" stroke-width="6" opacity=".55"/>
    <circle cx="162" cy="64" r="8" fill="#fff" stroke-width="2"/><circle cx="119" cy="64" r="5" fill="#172532" stroke-width="2"/>
    <path d="M6 50h25M6 64h20M6 78h25" stroke-width="5" opacity=".75"/>
  </g>
</svg>
